<svg xmlns="http://www.w3.org/2000/svg" width="512" height="512" viewBox="0 0 512 512">
  <rect width="512" height="512" rx="64" fill="#2d6a4f"/>
  <circle cx="256" cy="220" r="100" fill="#40916c" opacity="0.3"/>
  <path d="M256 140c-12 0-22 10-22 22v16h-48c-12 0-22 10-22 22s10 22 22 22h16v48c0 12 10 22 22 22s22-10 22-22v-48h48c12 0 22-10 22-22s-10-22-22-22h-48v-16c0-12-10-22-22-22z" fill="#fff"/>
  <path d="M180 360c0-8 6-14 14-14h124c8 0 14 6 14 14s-6 14-14 14H194c-8 0-14-6-14-14z" fill="#a7c957"/>
  <path d="M200 400c0-8 6-14 14-14h84c8 0 14 6 14 14s-6 14-14 14h-84c-8 0-14-6-14-14z" fill="#a7c957"/>
</svg>
